<svg xmlns="http://www.w3.org/2000/svg" width="512" height="512" viewBox="0 0 120 120">
  <defs><linearGradient id="t" x1="0" y1="0" x2="1" y2="1">
    <stop offset="0" stop-color="#4FB3A6"/><stop offset="1" stop-color="#0F766E"/>
  </linearGradient></defs>
  <rect width="120" height="120" rx="27" fill="url(#t)"/>
  <g transform="translate(12 12)">
    <path fill="#FFFFFF" d="M22 16H60C76 16 84 24 84 34C84 42 79.5 47 73 50C82 53 88 60 88 69C88 81 79 90 64 90H22C17.6 90 14 86.4 14 82V24C14 19.6 17.6 16 22 16Z"/>
    <rect x="22" y="30" width="42" height="44" rx="5" fill="#E6F2F0"/>
    <path fill="none" stroke="#E0A43B" stroke-width="6.5" stroke-linecap="round" stroke-linejoin="round" d="M31 52L40 61L56 41"/>
    <rect x="28" y="7" width="7" height="17" rx="3.5" fill="#FFFFFF" stroke="#0F766E" stroke-width="2"/>
    <rect x="47" y="7" width="7" height="17" rx="3.5" fill="#FFFFFF" stroke="#0F766E" stroke-width="2"/>
  </g>
</svg>
